# xmcd CD database file
#
# Track frame offsets:
#	150
#	15765
#	30615
#	51090
#	78617
#	85592
#	109657
#	135158
#	153686
#	170186
#	202137
#
# Disc length: 3577 seconds
#
# Revision: 0
# Processed by: cddbd v1.5PL3 Copyright (c) Steve Scherf et al.
# Submitted via: CDex 1.51
#
DISCID=840df70b
DTITLE=Xavier Garcia - Virtual Meeting
DYEAR=2003
DGENRE=Jazz
TTITLE0=Vite, pas trop fort
TTITLE1=Ebène danse
TTITLE2=Méditatif
TTITLE3=La prova d'orchestra
TTITLE4=La luna
TTITLE5=Spectral gate
TTITLE6=la rhombe et le peigne
TTITLE7=La poissonnière
TTITLE8=Italigeti
TTITLE9=Violence, orchestre
TTITLE10=Course de fond
EXTD=YEAR: 2003
EXTT0=
EXTT1=
EXTT2=
EXTT3=
EXTT4=
EXTT5=
EXTT6=
EXTT7=
EXTT8=
EXTT9=
EXTT10=
PLAYORDER=
